<svg width="58" height="14" viewBox="0 0 58 14" fill="none" xmlns="http://www.w3.org/2000/svg">
<path d="M8.96101 0.184344V1.78673H5.45112V12.8422H3.51968V1.78673H0V0.184344H8.96101ZM23.8169 12.8422L22.6601 9.88805H16.4637L15.3068 12.8422H13.2773L18.3854 0.184344H20.7384L25.8465 12.8422H23.8169ZM17.0718 8.3304H22.0524L19.5621 1.94765L17.0718 8.3304ZM36.085 13.0122C33.1928 13.0122 31.0751 11.75 30.6045 9.60159L32.5947 9.1719C32.9084 10.649 34.3104 11.4994 36.1536 11.4994C37.634 11.4994 39.0556 10.9444 39.0262 9.42252C39.0066 7.91859 37.2222 7.50682 35.33 7.0324C33.183 6.49528 31.0358 5.87763 31.0358 3.55011C31.0358 1.19579 33.1633 0.0141602 35.683 0.0141602C38.1242 0.0141602 40.3203 0.954111 40.8397 3.12941L38.9476 3.56805C38.6044 2.16261 37.3201 1.53598 35.771 1.53598C34.3789 1.53598 32.9965 2.09098 32.9965 3.53225C32.9965 4.83924 34.5455 5.22415 36.3005 5.65383C38.5064 6.19989 41.0359 6.82653 41.0359 9.36886C41.0359 11.9291 38.6831 13.0122 36.085 13.0122ZM55.4996 12.8422L50.6367 7.06806H49.4406V12.8422H47.4896V0.184344H49.4406V5.47489H50.6171L55.3428 0.184344H57.7349L52.3036 6.21785L58 12.8422H55.4996Z" fill="#0C031B"/>
</svg>
