<svg width="58" height="9" viewBox="0 0 58 9" fill="none" xmlns="http://www.w3.org/2000/svg">
<path d="M5.30908 1.05624H6.48822V8.70629H5.30908V5.35203H1.19101V8.70629H0V1.05624H1.19101V4.39442H5.30908V1.05624ZM16.4267 8.70629L15.7275 6.92091H11.9826L11.2834 8.70629H10.0568L13.144 1.05624H14.5661L17.6533 8.70629H16.4267ZM12.3501 5.9795H15.3602L13.8552 2.12193L12.3501 5.9795ZM25.7373 8.70629L23.5686 5.26533H22.3954V8.70629H21.2163V1.05624H24.0368C25.7907 1.05624 26.5906 2.0355 26.5906 3.23657C26.5906 4.3024 25.9033 5.04359 24.7537 5.22214L27.118 8.70632L25.7373 8.70629ZM22.3953 1.9867V4.44296H23.8766C24.9669 4.44296 25.4587 3.94521 25.4587 3.22023C25.4587 2.50608 24.9669 1.9867 23.8766 1.9867H22.3953ZM34.8579 4.70273C35.8475 4.92996 36.5111 5.55214 36.5111 6.61797C36.5111 7.8461 35.5986 8.70634 34.0935 8.70634H30.7991V1.05629H33.3708C34.9173 1.05629 35.895 1.87866 35.895 3.09056C35.895 3.81554 35.5334 4.41057 34.8579 4.70273ZM34.7927 3.16064C34.7927 2.5006 34.2713 1.98661 33.3647 1.98661H31.9426V4.36714H33.5484C34.3068 4.36714 34.7927 3.82612 34.7927 3.16064ZM33.8923 7.75948C34.8463 7.75948 35.3618 7.17517 35.3618 6.50972C35.3618 5.80638 34.8226 5.24372 33.8212 5.24372H31.9429V7.75948H33.8923ZM43.9848 8.80908C41.6087 8.80908 39.7954 7.31586 39.7954 4.87589C39.7954 2.44126 41.6086 0.953491 43.9848 0.953491C46.349 0.953491 48.1681 2.44131 48.1681 4.87589C48.1681 7.31591 46.349 8.80908 43.9848 8.80908ZM43.9848 7.79735C45.6616 7.79735 46.9889 6.73695 46.9889 4.87578C46.9889 3.03087 45.6616 1.97055 43.9848 1.97055C42.3019 1.97055 40.9687 3.03095 40.9687 4.87578C40.9687 6.73692 42.3019 7.79735 43.9848 7.79735ZM56.6194 8.70629L54.4507 5.26533H53.2774V8.70629H52.0983V1.05624H54.9188C56.6727 1.05624 57.4726 2.0355 57.4726 3.23657C57.4726 4.3024 56.7853 5.04359 55.6358 5.22214L58 8.70632L56.6194 8.70629ZM53.2773 1.9867V4.44296H54.7586C55.8489 4.44296 56.3407 3.94521 56.3407 3.22023C56.3407 2.50608 55.8489 1.9867 54.7586 1.9867H53.2773Z" fill="#5418C3"/>
</svg>
