<svg width="32" height="32" viewBox="0 0 32 32" fill="none" xmlns="http://www.w3.org/2000/svg">
<path d="M16 22.6665V14.6665" stroke="#0C031B" stroke-width="2" stroke-linecap="round"/>
<path d="M16.0001 9.33333C16.7365 9.33333 17.3334 9.93029 17.3334 10.6667C17.3334 11.403 16.7365 12 16.0001 12C15.2637 12 14.6667 11.403 14.6667 10.6667C14.6667 9.93029 15.2637 9.33333 16.0001 9.33333Z" fill="#0C031B"/>
<path d="M9.33341 4.45075C11.2946 3.31629 13.5715 2.66699 16.0001 2.66699C23.3638 2.66699 29.3334 8.63653 29.3334 16.0003C29.3334 23.3641 23.3638 29.3337 16.0001 29.3337C8.63628 29.3337 2.66675 23.3641 2.66675 16.0003C2.66675 13.5718 3.31604 11.2948 4.45051 9.33366" stroke="#0C031B" stroke-width="2" stroke-linecap="round"/>
</svg>
