<svg width="32" height="32" viewBox="0 0 32 32" fill="none" xmlns="http://www.w3.org/2000/svg">
<path d="M16 20C18.2091 20 20 18.2091 20 16C20 13.7909 18.2091 12 16 12C13.7909 12 12 13.7909 12 16C12 18.2091 13.7909 20 16 20Z" stroke="#0C031B" stroke-width="2"/>
<path d="M4.88154 14.1854C5.51161 14.5813 5.91701 15.2557 5.91701 15.9997C5.91699 16.7438 5.5116 17.4182 4.88154 17.8141C4.4528 18.0834 4.17656 18.2988 3.98002 18.5549C3.54948 19.1161 3.35946 19.8252 3.45178 20.5264C3.52101 21.0522 3.83164 21.5902 4.45289 22.6664C5.07416 23.7424 5.38478 24.2804 5.80559 24.6033C6.36669 25.0338 7.07583 25.2238 7.77703 25.1316C8.09707 25.0894 8.42162 24.9578 8.86919 24.7213C9.52717 24.3736 10.314 24.3597 10.9585 24.7318C11.6029 25.104 11.9843 25.7922 12.0121 26.5358C12.031 27.0418 12.0794 27.3888 12.2029 27.687C12.4736 28.3404 12.9927 28.8596 13.646 29.1302C14.1362 29.3332 14.7574 29.3332 15.9999 29.3332C17.2424 29.3332 17.8636 29.3332 18.3538 29.1302C19.0071 28.8596 19.5263 28.3404 19.797 27.687C19.9204 27.3888 19.9688 27.0418 19.9878 26.536C20.0155 25.7922 20.3968 25.104 21.0414 24.7318C21.6858 24.3598 22.4726 24.3737 23.1304 24.7214C23.5782 24.958 23.9027 25.0896 24.2227 25.1317C24.9239 25.2241 25.6331 25.034 26.1942 24.6034C26.615 24.2806 26.9256 23.7425 27.547 22.6665C27.8235 22.1874 28.0386 21.815 28.198 21.5028M27.1182 17.8142C26.4882 17.4184 26.0828 16.744 26.0827 16C26.0827 15.2558 26.4882 14.5813 27.1182 14.1854C27.547 13.9161 27.8231 13.7008 28.0196 13.4446C28.4502 12.8835 28.6402 12.1744 28.5479 11.4732C28.4787 10.9473 28.168 10.4093 27.5467 9.33324C26.9255 8.25718 26.6148 7.71917 26.194 7.39626C25.633 6.96572 24.9238 6.7757 24.2226 6.86801C23.9026 6.91016 23.578 7.0417 23.1304 7.27828C22.4724 7.62602 21.6856 7.63989 21.0412 7.26778C20.3968 6.8957 20.0155 6.20744 19.9878 5.46388C19.9688 4.95786 19.9204 4.61097 19.797 4.31268C19.5263 3.65928 19.0071 3.14014 18.3538 2.86949C17.8636 2.6665 17.2424 2.6665 15.9999 2.6665C14.7574 2.6665 14.1362 2.6665 13.646 2.86949C12.9927 3.14014 12.4736 3.65928 12.2029 4.31268C12.0794 4.61094 12.031 4.95781 12.0121 5.46376C11.9843 6.20738 11.6029 6.89572 10.9585 7.26778C10.314 7.63986 9.52722 7.62596 8.86931 7.27824C8.42169 7.04165 8.09711 6.91009 7.77705 6.86794C7.07585 6.77564 6.3667 6.96565 5.80561 7.3962C5.38479 7.7191 5.07417 8.25713 4.4529 9.33317C4.17633 9.81222 3.96132 10.1846 3.80176 10.4968" stroke="#0C031B" stroke-width="2" stroke-linecap="round"/>
</svg>
